<svg width="80" height="80" viewBox="0 0 80 80" fill="none" xmlns="http://www.w3.org/2000/svg">
<path d="M62.5 10.0796C60.585 10.0796 58.71 10.8221 57.265 12.2671L32.5 36.9546L31.9525 37.5021L31.7975 38.2846L30.0775 47.0346L29.2975 50.7046L32.97 49.9246L41.72 48.2046L42.5 48.0496L43.0475 47.5021L67.735 22.7371C68.7697 21.6998 69.4741 20.3793 69.7595 18.9422C70.0448 17.5051 69.8983 16.0157 69.3385 14.6617C68.7786 13.3078 67.8304 12.1499 66.6134 11.334C65.3964 10.5181 63.9651 10.0808 62.5 10.0771V10.0796ZM62.5 14.9246C63.085 14.9246 63.6625 15.2246 64.22 15.7821C65.3325 16.8971 65.3325 18.1071 64.22 19.2196L40 43.4421L35.7025 44.3021L36.5625 40.0046L60.7825 15.7846C61.3375 15.2296 61.915 14.9271 62.5 14.9271V14.9246ZM10 20.0021V70.0021H60V37.0321L55 42.0321V65.0021H15V25.0021H37.97L42.97 20.0021H10Z" fill="white"/>
</svg>
