<svg width="32" height="32" viewBox="0 0 32 32" fill="none" xmlns="http://www.w3.org/2000/svg">
<g clip-path="url(#clip0)">
<path d="M19.5193 29.2371C19.5616 29.2394 19.6035 29.2431 19.6465 29.2431H29.3346C30.4679 29.2431 31.3896 28.321 31.3896 27.1881V4.72951C31.3896 3.59663 30.4679 2.67445 29.3346 2.67445H19.6465C19.6038 2.67445 19.5616 2.67865 19.5193 2.68062V0L0.610397 2.52355V29.4112L19.5193 32V29.2371ZM19.6465 3.84906H29.3347C29.8204 3.84906 30.2154 4.24425 30.2154 4.72978V27.1886C30.2154 27.674 29.8204 28.0694 29.3347 28.0694H19.6465C19.6033 28.0694 19.5611 28.0625 19.5193 28.0561V17.4338C20.0611 19.4949 21.9316 21.0169 24.1626 21.0169C26.8175 21.0169 28.9694 18.865 28.9694 16.2104H24.1626V11.4033C21.9313 11.4033 20.0608 12.9255 19.5193 14.9867V3.86189C19.5611 3.85577 19.603 3.84906 19.6465 3.84906ZM6.3587 16.2265C5.91249 16.6703 5.25836 16.8658 4.50276 16.8598C4.33591 16.8584 4.18627 16.8483 4.07032 16.8297V18.9836L2.83291 18.9524V13.0709C3.21538 12.9908 3.75623 12.923 4.52712 12.9027C5.31768 12.8819 5.8872 13.0304 6.2724 13.3487C6.64411 13.6508 6.89507 14.1588 6.89507 14.7625C6.89534 15.3667 6.70457 15.8796 6.3587 16.2265ZM11.5812 16.2356C11.0956 16.6992 10.3828 16.9025 9.56051 16.8965C9.3793 16.8953 9.21632 16.8848 9.09076 16.8652V19.1119L7.74445 19.0774V12.9467C8.16072 12.8625 8.74849 12.7917 9.58722 12.7695C10.4474 12.7471 11.0677 12.9006 11.4876 13.2323C11.8918 13.5477 12.166 14.0779 12.166 14.7081C12.166 15.3386 11.9573 15.8744 11.5812 16.2356ZM17.744 13.8817L15.8706 13.9123V19.2844L14.3534 19.2457V13.9366L12.6034 13.9654V12.7373L17.744 12.604V13.8817Z" fill="#0F191E" fill-opacity="0.8"/>
<path d="M4.59431 13.9334C4.33554 13.9381 4.16121 13.9678 4.07022 13.9965V15.7753C4.17743 15.8019 4.31031 15.8108 4.49382 15.8102C5.17312 15.809 5.59655 15.437 5.59655 14.8126C5.59661 14.2511 5.23303 13.9222 4.59431 13.9334Z" fill="#0F191E" fill-opacity="0.8"/>
<path d="M9.66041 13.8441C9.37942 13.8488 9.18952 13.8802 9.09122 13.9099V15.7649C9.20804 15.7929 9.35222 15.8016 9.55151 15.8016C10.2913 15.8004 10.7522 15.4125 10.7522 14.7603C10.7522 14.1744 10.3554 13.8318 9.66041 13.8441Z" fill="#0F191E" fill-opacity="0.8"/>
<path d="M24.8149 15.4525V15.4539H29.622C29.622 14.102 29.0611 12.882 28.1624 12.0088L24.8149 15.4525Z" fill="#0F191E" fill-opacity="0.8"/>
<path d="M24.764 14.6067L28.1626 11.2079C27.2068 10.2515 26.0141 9.78537 24.7606 9.80323L24.7629 14.6055L24.764 14.6067Z" fill="#0F191E" fill-opacity="0.8"/>
</g>
<defs>
<clipPath id="clip0">
<rect width="32" height="32" fill="white"/>
</clipPath>
</defs>
</svg>
