<svg width="32" height="32" viewBox="0 0 32 32" fill="none" xmlns="http://www.w3.org/2000/svg">
<g clip-path="url(#clip0)">
<path d="M8.84214 13.4554C8.53122 13.46 8.33197 13.491 8.21426 13.5214V17.6409C8.3317 17.6711 8.52274 17.6745 8.69535 17.6779C9.96654 17.7118 10.8106 17.0031 10.8106 15.467C10.8198 14.1312 10.0514 13.437 8.84214 13.4554Z" fill="#0F191E" fill-opacity="0.8"/>
<path d="M19.5191 29.2371C19.561 29.2394 19.6035 29.2431 19.6465 29.2431H29.3345C30.4675 29.2431 31.3896 28.3211 31.3896 27.188V4.72954C31.3896 3.59666 30.4675 2.6745 29.3345 2.6745H19.6465C19.6037 2.6745 19.561 2.67868 19.5191 2.68064V0L0.609772 2.52352V29.4111L19.5191 32V29.2371ZM29.3345 28.0694H19.6465C19.6031 28.0694 19.561 28.0625 19.5191 28.0562V19.2445C21.5378 18.8957 24.3411 18.6316 26.7657 19.2013L27.0527 19.7577C28.2101 21.9461 29.4463 21.9317 29.9239 21.8239C30.0335 21.7993 30.0925 21.7718 30.0925 21.7718L30.1568 21.7377C30.1785 21.7239 30.1955 21.7064 30.2152 21.6915V27.1886C30.2152 27.674 29.8202 28.0694 29.3345 28.0694ZM20.3408 18.2001C21.858 16.3498 23.0839 14.6224 23.8735 13.4526L23.8764 13.459L23.885 13.4458C24.5048 14.7526 25.5266 16.7738 26.2302 18.1534L26.2279 18.1528L26.252 18.199C24.2514 17.8573 22.1032 17.982 20.3363 18.2262L20.3621 18.1961L20.3408 18.2001ZM23.9096 9.56618C23.9704 9.45897 24.0593 9.4306 24.2187 9.43761C24.2216 9.43788 24.5381 9.45865 24.6562 9.67546C24.7279 9.80458 24.8317 10.2141 24.2732 11.2128H24.2726C24.2726 11.2128 24.2003 11.333 24.0645 11.5498C23.7514 10.4504 23.772 9.80839 23.9096 9.56618ZM27.9498 19.5616C28.5237 19.7824 29.0392 20.0545 29.4905 20.3761C29.6201 20.5602 29.7399 20.8251 29.7181 20.9501C29.717 20.9561 29.7159 20.9622 29.7124 20.9682C29.5272 21.0023 28.7903 21.0252 27.9498 19.5616ZM19.6465 3.84902H29.3345C29.8202 3.84902 30.2152 4.24427 30.2152 4.72976V19.877C30.1877 19.8377 30.1639 19.8053 30.1499 19.7878L30.1126 19.7396L30.0639 19.7035C29.3121 19.1547 28.4062 18.7319 27.3683 18.446C26.6284 17.0011 25.096 13.9894 24.4518 12.5791C24.8248 12.0045 25.0252 11.6696 25.0344 11.6543C25.6155 10.6183 25.7425 9.80953 25.4211 9.23901C25.1298 8.72264 24.5496 8.56753 24.2531 8.55769C23.7738 8.53589 23.365 8.7409 23.143 9.13136C22.8047 9.72754 22.8747 10.7719 23.3529 12.2333C23.3741 12.3008 23.4082 12.3874 23.4532 12.4963C22.6872 13.655 21.2973 15.659 19.5189 17.8115V3.86196C19.561 3.85577 19.6029 3.84902 19.6465 3.84902ZM5.45321 15.8183C5.0061 16.2618 4.34887 16.4553 3.59024 16.4484C3.42339 16.4467 3.27258 16.4364 3.15607 16.4175V18.5757L1.91424 18.5413V12.6488C2.29785 12.5689 2.84069 12.5026 3.61547 12.4838C4.40715 12.4645 4.98055 12.6144 5.3672 12.9338C5.74005 13.2371 5.9916 13.747 5.9916 14.352C5.9916 14.9577 5.80023 15.4712 5.45321 15.8183ZM11.2833 18.0341C10.6126 18.5814 9.60446 18.8199 8.39459 18.7861C7.68185 18.7657 7.18184 18.7058 6.84482 18.6502V12.5349C7.34239 12.4401 7.99674 12.3778 8.69518 12.3608C9.87363 12.332 10.6499 12.5326 11.2651 12.9881C11.9331 13.4763 12.357 14.2711 12.357 15.4207C12.357 16.6669 11.9046 17.5186 11.2833 18.0341ZM13.333 12.2973L17.5106 12.1976V13.4538L14.8533 13.4923V15.0086L17.3339 15.0025V16.2466L14.8533 16.2294V18.8986L13.3325 18.8567V12.2974H13.333V12.2973Z" fill="#0F191E" fill-opacity="0.8"/>
<path d="M3.68292 13.5163C3.4236 13.5204 3.24843 13.5497 3.15649 13.5783V15.3602C3.26414 15.3873 3.39777 15.3964 3.5824 15.3964C4.26475 15.3969 4.68946 15.0247 4.68946 14.3991C4.68951 13.8362 4.32385 13.506 3.68292 13.5163Z" fill="#0F191E" fill-opacity="0.8"/>
</g>
<defs>
<clipPath id="clip0">
<rect width="32" height="32" fill="white"/>
</clipPath>
</defs>
</svg>
