<svg width="24" height="22" viewBox="0 0 24 22" fill="none" xmlns="http://www.w3.org/2000/svg">
<g clip-path="url(#clip0)">
<path d="M15.75 11.4019V18.5771C15.75 19.5916 14.857 20.4141 13.7367 20.4141H5.01562C3.89297 20.4141 3 19.5916 3 18.5771V7.55566C3.0032 7.06936 3.22152 6.60379 3.60763 6.25992C3.99373 5.91604 4.51648 5.7216 5.0625 5.71875H9.47437C9.62708 5.71896 9.77822 5.74623 9.91898 5.79898C10.0597 5.85174 10.1873 5.92891 10.2942 6.02602L15.4106 10.66C15.6283 10.8583 15.7501 11.1246 15.75 11.4019V11.4019Z" stroke="white" stroke-width="1.5" stroke-linejoin="round"/>
<path d="M9.375 5.71875V10.2275C9.37914 10.5364 9.51875 10.8316 9.764 11.05C10.0092 11.2685 10.3407 11.3928 10.6875 11.3965H15.75" stroke="white" stroke-width="1.5" stroke-linecap="round" stroke-linejoin="round"/>
<path d="M8.25 5.71875V3.54785C8.2532 3.06155 8.47152 2.59598 8.85763 2.2521C9.24373 1.90823 9.76648 1.71379 10.3125 1.71094H14.7188C14.8723 1.71113 15.0243 1.73837 15.166 1.79111C15.3076 1.84384 15.4362 1.92102 15.5442 2.0182L20.6606 6.65224C20.8782 6.84837 21.0001 7.11298 21 7.38867V14.5693C21 15.5838 20.107 16.4062 18.9867 16.4062H16.125" stroke="white" stroke-width="1.5" stroke-linejoin="round"/>
<path d="M14.625 1.71094V6.21973C14.6291 6.52861 14.7687 6.8238 15.014 7.04222C15.2592 7.26065 15.5907 7.38499 15.9375 7.38867H21" stroke="white" stroke-width="1.5" stroke-linecap="round" stroke-linejoin="round"/>
</g>
<defs>
<clipPath id="clip0">
<rect width="24" height="21.375" fill="white" transform="translate(0 0.375)"/>
</clipPath>
</defs>
</svg>
