<svg width="80" height="80" viewBox="0 0 80 80" fill="none" xmlns="http://www.w3.org/2000/svg">
<g clip-path="url(#clip0)">
<path d="M63.1665 49.2827C61.5965 46.0094 55.9797 41.466 50.5532 37.076C47.5265 34.6293 44.6665 32.316 42.8432 30.4927C42.3865 30.0327 41.7032 29.886 41.0999 30.1027C39.9766 30.5094 39.2832 30.8227 38.7366 31.066C37.9033 31.4393 37.6233 31.566 36.4999 31.6793C36.0032 31.7293 35.5566 31.996 35.2799 32.4093C32.9232 35.9326 30.4832 35.6326 28.8532 35.086C28.3332 34.9127 28.2399 34.6893 28.1899 34.476C27.8399 33.0127 29.5966 29.606 31.8732 27.3293C37.2899 21.9093 40.0832 20.5526 45.9832 23.1893C52.6765 26.1826 59.3832 28.526 59.4499 28.5493C60.3266 28.8526 61.2699 28.3926 61.5732 27.5226C61.8732 26.6526 61.4165 25.7026 60.5465 25.3993C60.4797 25.376 53.9065 23.0793 47.3465 20.1426C39.7032 16.7258 35.5097 18.9758 29.5197 24.9693C27.2397 27.2493 24.143 31.8626 24.943 35.246C25.2863 36.686 26.2997 37.7527 27.8063 38.2493C31.583 39.496 35.0296 38.3026 37.5963 34.896C38.6563 34.7327 39.233 34.4927 40.0996 34.1027C40.4129 33.9627 40.7796 33.7994 41.2663 33.6027C43.173 35.3927 45.7463 37.476 48.4563 39.666C53.3563 43.6293 58.913 48.1227 60.163 50.7227C60.7797 52.006 60.1163 52.8427 59.6663 53.226C59.0063 53.7927 58.103 53.9727 57.613 53.6293C57.073 53.2593 56.3697 53.236 55.813 53.5693C55.253 53.9026 54.9397 54.5326 55.0097 55.1793C55.123 56.2393 54.153 56.846 53.733 57.056C52.6663 57.596 51.553 57.5027 51.1363 57.116C50.6696 56.6827 49.9996 56.556 49.4063 56.776C48.813 56.9993 48.3996 57.546 48.3396 58.1793C48.2396 59.2726 47.4296 60.3226 46.3729 60.7326C45.8629 60.9258 45.1229 61.0426 44.4596 60.4358C44.0463 60.0626 43.4729 59.9191 42.9363 60.0491C42.393 60.1824 41.9563 60.5758 41.7663 61.0991C41.703 61.2658 41.5596 61.6658 39.9996 61.6658C38.8896 61.6658 36.8929 60.9158 35.9163 60.2691C34.7463 59.4991 27.4096 54.0258 21.073 48.7191C20.183 47.9691 18.643 46.3624 17.283 44.9424C16.0763 43.6824 14.973 42.5391 14.4063 42.0591C13.6963 41.4591 12.6463 41.5491 12.0563 42.2558C11.463 42.9591 11.5496 44.0126 12.253 44.6058C12.7697 45.0426 13.7697 46.0991 14.873 47.2491C16.3597 48.8024 17.8963 50.4091 18.9297 51.2758C25.1365 56.4726 32.5965 62.0826 34.083 63.0591C35.3097 63.8658 37.953 64.9991 39.9997 64.9991C41.643 64.9991 42.9065 64.6224 43.783 63.8858C44.9563 64.3426 46.2897 64.3458 47.573 63.8458C49.0897 63.2591 50.3363 62.0758 51.043 60.6426C52.3563 60.9226 53.8597 60.7258 55.2263 60.0393C56.563 59.366 57.5296 58.336 58.0096 57.1326C59.3363 57.2026 60.7029 56.7326 61.8329 55.7626C63.7465 54.126 64.273 51.5794 63.1665 49.2827Z" fill="white"/>
<path d="M33.3332 21.666H18.3332C17.4132 21.666 16.6665 22.4127 16.6665 23.3327C16.6665 24.2527 17.4132 24.9995 18.3332 24.9995H33.3332C34.2532 24.9995 34.9999 24.2527 34.9999 23.3327C34.9999 22.4127 34.2532 21.666 33.3332 21.666Z" fill="white"/>
<path d="M68.0503 45.736C67.5335 44.9727 66.5003 44.7627 65.737 45.2827L60.8637 48.556C60.1004 49.0693 59.897 50.106 60.4104 50.8693C60.7337 51.346 61.2604 51.606 61.7971 51.606C62.1139 51.606 62.4371 51.516 62.7239 51.3227L67.5971 48.0494C68.3603 47.536 68.5635 46.4994 68.0503 45.736Z" fill="white"/>
<path d="M57.7033 53.6895C56.51 52.7495 51.1733 47.2862 47.8733 43.8462C47.2366 43.1795 46.18 43.1562 45.5166 43.7962C44.8499 44.4329 44.8299 45.4895 45.4666 46.1529C46.3233 47.0462 53.8799 54.9229 55.6366 56.3096C55.9399 56.5496 56.3066 56.6664 56.6666 56.6664C57.1566 56.6664 57.6466 56.4464 57.9799 56.0297C58.55 55.3095 58.4267 54.2595 57.7033 53.6895Z" fill="white"/>
<path d="M51.0434 57.0329C49.0467 55.4362 44.0302 50.1062 42.8967 48.8729C42.27 48.1929 41.22 48.1529 40.54 48.7729C39.8633 49.3962 39.8167 50.4529 40.44 51.1296C40.5 51.1929 46.4867 57.6563 48.96 59.6363C49.2667 59.8796 49.6367 59.9996 50 59.9996C50.4867 59.9996 50.9733 59.7829 51.3033 59.3763C51.8769 58.6562 51.7602 57.6062 51.0434 57.0329Z" fill="white"/>
<path d="M44.4101 60.3895C42.0334 58.3862 37.1701 53.2095 36.2201 52.1928C35.5901 51.5195 34.5334 51.4828 33.8634 52.1128C33.1901 52.7428 33.1567 53.7961 33.7834 54.4695C35.1501 55.9328 39.8034 60.8662 42.2601 62.9395C42.5734 63.2028 42.9534 63.3328 43.3334 63.3328C43.8067 63.3328 44.2801 63.1295 44.6101 62.7395C45.2034 62.0328 45.1134 60.9828 44.4101 60.3895Z" fill="white"/>
<path d="M19.48 18.7895C16.6233 16.0828 5.2 15.206 1.76672 15.0028C1.29344 14.9795 0.856719 15.136 0.523438 15.4528C0.19 15.766 0 16.206 0 16.666V46.666C0 47.5861 0.746719 48.3328 1.66672 48.3328H11.6667C12.3867 48.3328 13.0267 47.8695 13.25 47.1828C13.4933 46.4361 19.2367 28.8095 19.9933 20.1428C20.0367 19.636 19.85 19.136 19.48 18.7895ZM10.45 44.9995H3.33328V18.4528C8.69 18.876 14.47 19.796 16.57 20.816C15.6867 28.116 11.69 41.0861 10.45 44.9995Z" fill="white"/>
<path d="M78.3338 18.3328C65.2471 18.3328 57.9871 21.6828 57.6839 21.8228C57.2506 22.026 56.9271 22.4028 56.7939 22.8595C56.6606 23.3162 56.7271 23.8062 56.9771 24.2128C59.0371 27.5295 65.4871 45.9495 66.7271 50.4428C66.9271 51.166 67.5838 51.666 68.3338 51.666H78.3338C79.2538 51.666 80.0006 50.9193 80.0006 49.9993V19.9993C80.0006 19.076 79.2538 18.3328 78.3338 18.3328ZM76.6673 48.3328H69.5806C68.0006 43.186 63.3338 29.766 60.7306 24.2195C63.2738 23.3562 68.7373 21.8728 76.6673 21.6862V48.3328Z" fill="white"/>
</g>
<defs>
<clipPath id="clip0">
<rect width="80" height="80" fill="white"/>
</clipPath>
</defs>
</svg>
