<svg width="24" height="23" viewBox="0 0 24 23" fill="none" xmlns="http://www.w3.org/2000/svg">
<path d="M20.8125 17.2822H4.6875V4.25684C4.6875 4.16499 4.60312 4.08984 4.5 4.08984H3.1875C3.08437 4.08984 3 4.16499 3 4.25684V18.6182C3 18.71 3.08437 18.7852 3.1875 18.7852H20.8125C20.9156 18.7852 21 18.71 21 18.6182V17.4492C21 17.3574 20.9156 17.2822 20.8125 17.2822ZM6.75 15.6123H8.0625C8.16563 15.6123 8.25 15.5372 8.25 15.4453V12.4395C8.25 12.3476 8.16563 12.2725 8.0625 12.2725H6.75C6.64687 12.2725 6.5625 12.3476 6.5625 12.4395V15.4453C6.5625 15.5372 6.64687 15.6123 6.75 15.6123ZM10.3125 15.6123H11.625C11.7281 15.6123 11.8125 15.5372 11.8125 15.4453V8.76562C11.8125 8.67378 11.7281 8.59863 11.625 8.59863H10.3125C10.2094 8.59863 10.125 8.67378 10.125 8.76562V15.4453C10.125 15.5372 10.2094 15.6123 10.3125 15.6123ZM13.875 15.6123H15.1875C15.2906 15.6123 15.375 15.5372 15.375 15.4453V10.3938C15.375 10.302 15.2906 10.2268 15.1875 10.2268H13.875C13.7719 10.2268 13.6875 10.302 13.6875 10.3938V15.4453C13.6875 15.5372 13.7719 15.6123 13.875 15.6123ZM17.4375 15.6123H18.75C18.8531 15.6123 18.9375 15.5372 18.9375 15.4453V7.0957C18.9375 7.00386 18.8531 6.92871 18.75 6.92871H17.4375C17.3344 6.92871 17.25 7.00386 17.25 7.0957V15.4453C17.25 15.5372 17.3344 15.6123 17.4375 15.6123Z" fill="white"/>
</svg>
