<svg width="24" height="23" viewBox="0 0 24 23" fill="none" xmlns="http://www.w3.org/2000/svg">
<path d="M8.51392 18.7188H4.51392C3.98348 18.7188 3.47478 18.5311 3.0997 18.197C2.72463 17.863 2.51392 17.4099 2.51392 16.9375V6.25C2.51392 5.77758 2.72463 5.32452 3.0997 4.99047C3.47478 4.65642 3.98348 4.46875 4.51392 4.46875H8.51392V6.25H4.51392V16.9375H8.51392V18.7188Z" fill="white"/>
<path d="M13.8419 16.3898L15.2619 15.1358L11.3419 11.6152H20.4859C20.7511 11.6152 21.0055 11.5214 21.193 11.3543C21.3805 11.1873 21.4859 10.9608 21.4859 10.7246C21.4859 10.4884 21.3805 10.2618 21.193 10.0948C21.0055 9.92777 20.7511 9.83394 20.4859 9.83394H11.3239L15.3039 6.31864L13.8959 5.05396L7.50488 10.6978L13.8419 16.3898Z" fill="white"/>
</svg>
