<svg xmlns="http://www.w3.org/2000/svg" viewBox="0 0 702.44 127.62"><defs><style>.cls-1{fill:#05be50;}.cls-2{fill:#0032a0;fill-rule:evenodd;}</style></defs><title>Recurso 1logo</title><g id="Capa_2" data-name="Capa 2"><g id="Layer_1" data-name="Layer 1"><path class="cls-1" d="M346.15,37.06c-20.09,0-34.33,14.49-34.38,38,0,21.37,17.07,34.68,34.51,34.69,10.37,0,16.84-1.61,20.59-4.67V93.17c-5.35,2.63-11.67,3.46-17.27,3.46-10.75,0-19.4-5.85-20.8-15.27l-.12-.84h12.55c11.8,0,20.13-1.07,25.37-3.67s7.5-6.55,7.53-12.92C374.13,47.34,360.71,37.07,346.15,37.06Zm8.18,30.77c-3.26,1.14-8.48,1.59-17,1.59h-8.75l.05-.76.12-2.39h0c.4-8.49,6.69-15.88,15.77-15.88,4.22,0,7.77.92,10.31,2.83a10.21,10.21,0,0,1,4,8.59C358.92,64.53,357.61,66.73,354.33,67.83Zm28.45-3.67v44.36h16.47V67.34c0-5.52,1.11-9.5,3.37-12.14s5.62-3.79,9.74-3.79a26.16,26.16,0,0,1,4.48.37V38.73A18.39,18.39,0,0,0,408.5,37C390,37.05,382.84,50.12,382.78,64.16Zm-216.68-45v89.37h16.44V19.15Zm60.8,17.91c-22,0-31.52,15-31.57,29.78v41.68h16.35V68c0-5.21,1.36-9.39,3.79-12.28a12.65,12.65,0,0,1,10-4.44c4.72,0,8.59,1.37,11.24,4.38s4,7.55,4,13.65l0,39.17H257V67.78C257,47.94,243.46,37.09,226.9,37.06Zm59-17.91H269.65l.05,64.48c.09,16.37,8.33,26,26.13,26.1,7.55,0,12.1-2.46,14-6.39V93.18c-2.94,1.29-6.91,1.88-11.84,1.88-3.7,0-6.77-.94-8.89-3.19s-3.15-5.63-3.15-10.36V51.33h14.26c7,0,9.89-4.45,9.91-7.74V37.06H285.92Zm310.8,17.91c-22,0-31.54,15-31.58,29.78l.09,41.68h16.26V68.05c0-5.22,1.36-9.4,3.79-12.29a12.64,12.64,0,0,1,10-4.44c4.71,0,8.6,1.37,11.23,4.4s4,7.53,4,13.63l0,39.17h16.32V67.78C626.8,47.93,613.29,37.09,596.72,37.06Zm-136.38,0c-9.21,0-15,5.47-18.43,10.52l-1.33,1.93.05-30.36H424.4V74.52c0,23.54,14.15,35.21,32.56,35.21,20.94,0,34.17-16.5,34.2-37.6C491.13,51.45,477.77,37.07,460.34,37.06Zm-1.57,58.77h0c-5.34,0-10.18-1.57-13.34-5.48S440.71,80.28,440.71,72c0-11.36,6.86-20.66,16.25-20.68,5.45,0,9.94,1.5,13,5.35s4.56,9.77,4.56,18.5C474.47,86.9,468,95.82,458.77,95.83Zm66-58.76c-10,0-16.48,2.67-21,6.26V54.81a41.46,41.46,0,0,1,18.38-4c5.37,0,10,.75,12.79,2.94s4,5.75,4,10.86v1.65h-7c-26.22.1-34.87,9.39-34.92,21.61,0,12.59,11.22,21.86,28,21.88h3.6c15.62,0,26.35-10.11,26.39-24.78V68.56C555,43.57,540.48,37.17,524.74,37.07Zm14.27,48c0,3.75-1,6.72-3,8.74s-5.15,3-9.1,3h0c-4,0-7.26-.85-9.55-2.5a8.35,8.35,0,0,1-3.55-7.08,7.76,7.76,0,0,1,4-7.32c2.87-1.62,7.32-2.39,14.17-2.4H539Z"/><path class="cls-1" d="M673.54,71.43l-.38-.46.38-.46c7.17-9,22.68-26.57,28.51-31.84h-9c-5.69,0-9.62.63-13.73,4.42-8.18,7.74-14.95,16.82-21.86,25.81l-1.32,1.72.07-51.48H639.61v89.23l16.47,0V72.21L657.42,74c7.84,10.43,15.8,21,24.93,30.3a16.81,16.81,0,0,0,11.19,4.67c4.52,0,7.09-1.15,8.9-3.31C697.89,100.19,679.11,78.23,673.54,71.43Z"/><path class="cls-2" d="M17,0A17.08,17.08,0,0,0,0,17.13V127.62H110.59a17.09,17.09,0,0,0,17-17.13L127.66,0Zm80.8,92.11-68,12.3V35.75l68-12.3Z"/></g></g></svg>